<mxfile host="65bd71144e">
    <diagram name="Page-1" id="n5Qb5iA8dRXw3r0Tk5m8">
        <mxGraphModel dx="2607" dy="1158" grid="0" gridSize="10" guides="1" tooltips="1" connect="1" arrows="1" fold="1" page="0" pageScale="1" pageWidth="850" pageHeight="1100" math="0" shadow="0">
            <root>
                <mxCell id="0"/>
                <mxCell id="1" parent="0"/>
                <mxCell id="Xi0OJc3CzYUvT2jzZGl6-115" value="Public Internet" style="shape=mxgraph.ibm.box;prType=cloud;fontStyle=0;verticalAlign=top;align=left;spacingLeft=32;spacingTop=4;fillColor=none;rounded=0;whiteSpace=wrap;html=1;strokeColor=#FF0800;strokeWidth=3;dashed=0;container=1;spacing=-4;collapsible=0;expand=0;recursiveResize=0;" parent="1" vertex="1">
                    <mxGeometry x="-1154" y="-208" width="1130" height="843" as="geometry"/>
                </mxCell>
                <mxCell id="Xi0OJc3CzYUvT2jzZGl6-119" value="" style="group" parent="Xi0OJc3CzYUvT2jzZGl6-115" vertex="1" connectable="0">
                    <mxGeometry x="606" y="20" width="60" height="60" as="geometry"/>
                </mxCell>
                <mxCell id="Zk3EBVXWUtb9SHXZOmo2-37" value="&lt;font&gt;User Device&lt;br&gt;(client support for iOS, Android, Windows, Linux, OSX)&lt;br&gt;&lt;/font&gt;" style="image;aspect=fixed;perimeter=ellipsePerimeter;html=1;align=center;shadow=0;dashed=0;fontColor=default;labelBackgroundColor=none;fontSize=12;spacingTop=3;image=img/lib/ibm/users/device.svg;" parent="Xi0OJc3CzYUvT2jzZGl6-119" vertex="1">
                    <mxGeometry width="60" height="60" as="geometry"/>
                </mxCell>
                <mxCell id="72" value="" style="aspect=fixed;perimeter=ellipsePerimeter;html=1;align=center;shadow=0;dashed=0;fontColor=default;labelBackgroundColor=none;fontSize=12;spacingTop=3;image;image=img/lib/ibm/users/browser.svg;" parent="Xi0OJc3CzYUvT2jzZGl6-119" vertex="1">
                    <mxGeometry width="60" height="60" as="geometry"/>
                </mxCell>
                <mxCell id="Xi0OJc3CzYUvT2jzZGl6-113" value="ALTERNcloud Technical/Political/Jurisdictional Redundancy" style="shape=mxgraph.ibm.box;prType=region;fontStyle=0;verticalAlign=top;align=left;spacingLeft=32;spacingTop=4;fillColor=none;rounded=0;whiteSpace=wrap;html=1;strokeColor=#990000;strokeWidth=3;dashed=0;container=1;spacing=-4;collapsible=0;expand=0;recursiveResize=0;" parent="1" vertex="1">
                    <mxGeometry x="-1117" y="-76" width="1072" height="694" as="geometry"/>
                </mxCell>
                <mxCell id="Xi0OJc3CzYUvT2jzZGl6-114" value="ALTERNcloud Automated On-Site DDoS Protection" style="shape=mxgraph.ibm.box;prType=classic;fontStyle=0;verticalAlign=top;align=left;spacingLeft=32;spacingTop=4;fillColor=none;rounded=0;whiteSpace=wrap;html=1;strokeColor=#990000;strokeWidth=3;dashed=0;container=1;spacing=-4;collapsible=0;expand=0;recursiveResize=0;" parent="Xi0OJc3CzYUvT2jzZGl6-113" vertex="1">
                    <mxGeometry x="27" y="38" width="1020" height="632" as="geometry"/>
                </mxCell>
                <mxCell id="Xi0OJc3CzYUvT2jzZGl6-110" value="ALTERNcloud VPC" style="shape=mxgraph.ibm.box;prType=vpc;fontStyle=0;verticalAlign=top;align=left;spacingLeft=32;spacingTop=4;fillColor=none;rounded=0;whiteSpace=wrap;html=1;strokeColor=#990000;strokeWidth=3;dashed=0;container=1;spacing=-4;collapsible=0;expand=0;recursiveResize=0;" parent="1" vertex="1">
                    <mxGeometry x="-1058" y="4" width="967" height="569" as="geometry"/>
                </mxCell>
                <mxCell id="Xi0OJc3CzYUvT2jzZGl6-103" value="VPN Connection" style="shape=mxgraph.ibm.box;prType=subnet;fontStyle=0;verticalAlign=top;align=left;spacingLeft=32;spacingTop=4;fillColor=none;rounded=0;whiteSpace=wrap;html=1;strokeColor=#0A8F00;strokeWidth=3;dashed=0;container=1;spacing=-4;collapsible=0;expand=0;recursiveResize=0;" parent="1" vertex="1">
                    <mxGeometry x="-1033" y="46" width="920" height="510" as="geometry"/>
                </mxCell>
                <mxCell id="Xi0OJc3CzYUvT2jzZGl6-100" value="" style="shape=mxgraph.ibm.box;prType=enterprise;fontStyle=0;verticalAlign=top;align=left;spacingLeft=32;spacingTop=4;fillColor=none;rounded=0;whiteSpace=wrap;html=1;strokeColor=#FF8000;strokeWidth=3;dashed=0;container=1;spacing=-4;collapsible=0;expand=0;recursiveResize=0;" parent="1" vertex="1">
                    <mxGeometry x="-523" y="238" width="393" height="126" as="geometry"/>
                </mxCell>
                <mxCell id="Xi0OJc3CzYUvT2jzZGl6-96" value="Nextcloud DMZ Network" style="shape=mxgraph.ibm.box;prType=enterprise;fontStyle=0;verticalAlign=top;align=left;spacingLeft=32;spacingTop=4;fillColor=none;rounded=0;whiteSpace=wrap;html=1;strokeColor=#FF8000;strokeWidth=3;dashed=0;container=1;spacing=-4;collapsible=0;expand=0;recursiveResize=0;" parent="1" vertex="1">
                    <mxGeometry x="-1013" y="178" width="411" height="366" as="geometry"/>
                </mxCell>
                <mxCell id="Zk3EBVXWUtb9SHXZOmo2-94" style="edgeStyle=orthogonalEdgeStyle;rounded=0;orthogonalLoop=1;jettySize=auto;html=1;exitX=0.5;exitY=1;exitDx=0;exitDy=0;entryX=0.5;entryY=0;entryDx=0;entryDy=0;" parent="1" source="Zk3EBVXWUtb9SHXZOmo2-38" target="Zk3EBVXWUtb9SHXZOmo2-63" edge="1">
                    <mxGeometry relative="1" as="geometry"/>
                </mxCell>
                <mxCell id="3-xjpAz8GASwxe2ccpQj-71" value="User Login" style="edgeLabel;html=1;align=center;verticalAlign=middle;resizable=0;points=[];" parent="Zk3EBVXWUtb9SHXZOmo2-94" vertex="1" connectable="0">
                    <mxGeometry x="0.205" y="1" relative="1" as="geometry">
                        <mxPoint as="offset"/>
                    </mxGeometry>
                </mxCell>
                <mxCell id="Xi0OJc3CzYUvT2jzZGl6-94" value="Nextcloud Cluster" style="edgeLabel;html=1;align=center;verticalAlign=middle;resizable=0;points=[];" parent="Zk3EBVXWUtb9SHXZOmo2-94" vertex="1" connectable="0">
                    <mxGeometry x="0.766" y="2" relative="1" as="geometry">
                        <mxPoint y="1" as="offset"/>
                    </mxGeometry>
                </mxCell>
                <mxCell id="Zk3EBVXWUtb9SHXZOmo2-36" style="edgeStyle=orthogonalEdgeStyle;rounded=0;orthogonalLoop=1;jettySize=auto;html=1;exitX=0.5;exitY=1;exitDx=0;exitDy=0;entryX=0.446;entryY=0.167;entryDx=0;entryDy=0;entryPerimeter=0;" parent="1" source="Zk3EBVXWUtb9SHXZOmo2-22" target="Zk3EBVXWUtb9SHXZOmo2-10" edge="1">
                    <mxGeometry relative="1" as="geometry"/>
                </mxCell>
                <mxCell id="3-xjpAz8GASwxe2ccpQj-73" style="edgeStyle=orthogonalEdgeStyle;rounded=0;orthogonalLoop=1;jettySize=auto;html=1;exitX=0;exitY=0.5;exitDx=0;exitDy=0;entryX=0.5;entryY=0;entryDx=0;entryDy=0;" parent="1" source="Zk3EBVXWUtb9SHXZOmo2-8" target="Zk3EBVXWUtb9SHXZOmo2-3" edge="1">
                    <mxGeometry relative="1" as="geometry"/>
                </mxCell>
                <mxCell id="3-xjpAz8GASwxe2ccpQj-74" value="User Login" style="edgeLabel;html=1;align=center;verticalAlign=middle;resizable=0;points=[];" parent="3-xjpAz8GASwxe2ccpQj-73" vertex="1" connectable="0">
                    <mxGeometry x="0.2767" y="3" relative="1" as="geometry">
                        <mxPoint as="offset"/>
                    </mxGeometry>
                </mxCell>
                <mxCell id="Zk3EBVXWUtb9SHXZOmo2-8" value="User RustDeskÂ &#10;Client&#10;" style="shape=image;verticalLabelPosition=bottom;labelBackgroundColor=default;verticalAlign=top;aspect=fixed;imageAspect=0;image=https://upload.wikimedia.org/wikipedia/commons/thumb/9/96/Rustdesk.svg/1200px-Rustdesk.svg.png;" parent="1" vertex="1">
                    <mxGeometry x="-374.5" y="56" width="50" height="50" as="geometry"/>
                </mxCell>
                <mxCell id="Zk3EBVXWUtb9SHXZOmo2-102" style="edgeStyle=orthogonalEdgeStyle;rounded=0;orthogonalLoop=1;jettySize=auto;html=1;exitX=1;exitY=0.5;exitDx=0;exitDy=0;entryX=0.5;entryY=0;entryDx=0;entryDy=0;" parent="1" source="Zk3EBVXWUtb9SHXZOmo2-37" target="Zk3EBVXWUtb9SHXZOmo2-22" edge="1">
                    <mxGeometry relative="1" as="geometry"/>
                </mxCell>
                <mxCell id="Xi0OJc3CzYUvT2jzZGl6-118" value="VPN Login" style="edgeLabel;html=1;align=center;verticalAlign=middle;resizable=0;points=[];" parent="Zk3EBVXWUtb9SHXZOmo2-102" vertex="1" connectable="0">
                    <mxGeometry x="-0.3624" relative="1" as="geometry">
                        <mxPoint as="offset"/>
                    </mxGeometry>
                </mxCell>
                <mxCell id="Zk3EBVXWUtb9SHXZOmo2-38" value="User Nextcloud Client" style="shape=image;verticalLabelPosition=bottom;labelBackgroundColor=default;verticalAlign=top;aspect=fixed;imageAspect=0;image=https://static-00.iconduck.com/assets.00/nextcloud-icon-512x512-quluhp24.png;" parent="1" vertex="1">
                    <mxGeometry x="-840" y="77" width="50" height="50" as="geometry"/>
                </mxCell>
                <mxCell id="71" style="edgeStyle=orthogonalEdgeStyle;html=1;exitX=0.5;exitY=1;exitDx=0;exitDy=0;entryX=0.5;entryY=0;entryDx=0;entryDy=0;fontSize=12;fontColor=#FFFFFF;rounded=0;" parent="1" source="Zk3EBVXWUtb9SHXZOmo2-55" target="Zk3EBVXWUtb9SHXZOmo2-47" edge="1">
                    <mxGeometry relative="1" as="geometry"/>
                </mxCell>
                <mxCell id="54" style="edgeStyle=none;html=1;exitX=0;exitY=0.5;exitDx=0;exitDy=0;entryX=0;entryY=0.5;entryDx=0;entryDy=0;fontSize=12;fontColor=#FFFFFF;rounded=0;" parent="1" source="Zk3EBVXWUtb9SHXZOmo2-3" target="35" edge="1">
                    <mxGeometry relative="1" as="geometry">
                        <Array as="points">
                            <mxPoint x="-491" y="293"/>
                            <mxPoint x="-491" y="462"/>
                        </Array>
                    </mxGeometry>
                </mxCell>
                <mxCell id="Xi0OJc3CzYUvT2jzZGl6-120" value="Rustdesk Internal Network" style="edgeLabel;html=1;align=center;verticalAlign=middle;resizable=0;points=[];" parent="54" vertex="1" connectable="0">
                    <mxGeometry x="0.362" y="1" relative="1" as="geometry">
                        <mxPoint x="58" y="-4" as="offset"/>
                    </mxGeometry>
                </mxCell>
                <mxCell id="Xi0OJc3CzYUvT2jzZGl6-121" value="User&lt;br&gt;Login" style="edgeLabel;html=1;align=center;verticalAlign=middle;resizable=0;points=[];" parent="54" vertex="1" connectable="0">
                    <mxGeometry x="-0.1916" relative="1" as="geometry">
                        <mxPoint as="offset"/>
                    </mxGeometry>
                </mxCell>
                <mxCell id="Zk3EBVXWUtb9SHXZOmo2-3" value="RustDesk Relay Server" style="shape=image;verticalLabelPosition=bottom;labelBackgroundColor=default;verticalAlign=top;aspect=fixed;imageAspect=0;image=https://upload.wikimedia.org/wikipedia/commons/thumb/9/96/Rustdesk.svg/1200px-Rustdesk.svg.png;" parent="1" vertex="1">
                    <mxGeometry x="-423" y="268.5" width="48.5" height="48.5" as="geometry"/>
                </mxCell>
                <mxCell id="Zk3EBVXWUtb9SHXZOmo2-47" value="&lt;font&gt;VPN Server&lt;/font&gt;" style="image;aspect=fixed;perimeter=ellipsePerimeter;html=1;align=center;shadow=0;dashed=0;fontColor=default;labelBackgroundColor=none;fontSize=12;spacingTop=3;image=img/lib/ibm/vpc/Instance.svg;" parent="1" vertex="1">
                    <mxGeometry x="-712.75" y="218" width="45" height="45" as="geometry"/>
                </mxCell>
                <mxCell id="Zk3EBVXWUtb9SHXZOmo2-97" style="edgeStyle=orthogonalEdgeStyle;rounded=0;orthogonalLoop=1;jettySize=auto;html=1;exitX=0.5;exitY=1;exitDx=0;exitDy=0;entryX=0.5;entryY=0;entryDx=0;entryDy=0;" parent="1" source="Zk3EBVXWUtb9SHXZOmo2-63" target="Zk3EBVXWUtb9SHXZOmo2-83" edge="1">
                    <mxGeometry relative="1" as="geometry"/>
                </mxCell>
                <mxCell id="Xi0OJc3CzYUvT2jzZGl6-80" value="Outgoing Connections" style="edgeLabel;html=1;align=center;verticalAlign=middle;resizable=0;points=[];" parent="Zk3EBVXWUtb9SHXZOmo2-97" vertex="1" connectable="0">
                    <mxGeometry x="0.3636" y="-1" relative="1" as="geometry">
                        <mxPoint x="1" y="-2" as="offset"/>
                    </mxGeometry>
                </mxCell>
                <mxCell id="44" style="edgeStyle=none;html=1;exitX=0;exitY=0.5;exitDx=0;exitDy=0;entryX=1;entryY=0.5;entryDx=0;entryDy=0;fontSize=12;fontColor=#FFFFFF;rounded=0;" parent="1" source="Zk3EBVXWUtb9SHXZOmo2-63" target="21" edge="1">
                    <mxGeometry relative="1" as="geometry"/>
                </mxCell>
                <mxCell id="Zk3EBVXWUtb9SHXZOmo2-63" value="Nextcloud Hub" style="shape=image;verticalLabelPosition=bottom;labelBackgroundColor=default;verticalAlign=top;aspect=fixed;imageAspect=0;image=https://static-00.iconduck.com/assets.00/nextcloud-icon-512x512-quluhp24.png;" parent="1" vertex="1">
                    <mxGeometry x="-840" y="330" width="50" height="50" as="geometry"/>
                </mxCell>
                <mxCell id="22" style="edgeStyle=none;html=1;exitX=1;exitY=0.5;exitDx=0;exitDy=0;entryX=0.5;entryY=1;entryDx=0;entryDy=0;fontColor=#FFFFFF;rounded=0;" parent="1" source="Zk3EBVXWUtb9SHXZOmo2-83" target="Zk3EBVXWUtb9SHXZOmo2-47" edge="1">
                    <mxGeometry relative="1" as="geometry">
                        <Array as="points">
                            <mxPoint x="-687" y="491"/>
                        </Array>
                    </mxGeometry>
                </mxCell>
                <mxCell id="Zk3EBVXWUtb9SHXZOmo2-83" value="&lt;font&gt;Proxy/firewall&lt;/font&gt;" style="image;aspect=fixed;perimeter=ellipsePerimeter;html=1;align=center;shadow=0;dashed=0;fontColor=default;labelBackgroundColor=none;fontSize=12;spacingTop=3;image=img/lib/ibm/vpc/Instance.svg;" parent="1" vertex="1">
                    <mxGeometry x="-837.5" y="468" width="45" height="45" as="geometry"/>
                </mxCell>
                <mxCell id="21" value="&lt;font&gt;Persistent&lt;br&gt;File Storage&lt;br&gt;(ZK Encryption)&lt;br&gt;&lt;/font&gt;" style="aspect=fixed;perimeter=ellipsePerimeter;html=1;align=center;shadow=0;dashed=0;fontColor=default;labelBackgroundColor=none;fontSize=12;spacingTop=3;image;image=img/lib/ibm/data/data_services.svg;" parent="1" vertex="1">
                    <mxGeometry x="-977" y="330" width="50" height="50" as="geometry"/>
                </mxCell>
                <mxCell id="Zk3EBVXWUtb9SHXZOmo2-10" value="&lt;font&gt;VPN Server&lt;/font&gt;" style="image;aspect=fixed;perimeter=ellipsePerimeter;html=1;align=center;shadow=0;dashed=0;fontColor=default;labelBackgroundColor=none;fontSize=12;spacingTop=3;image=img/lib/ibm/vpc/Instance.svg;" parent="1" vertex="1">
                    <mxGeometry x="-193" y="271" width="45" height="45" as="geometry"/>
                </mxCell>
                <mxCell id="13" style="edgeStyle=none;html=1;exitX=1;exitY=0.5;exitDx=0;exitDy=0;entryX=0;entryY=0.5;entryDx=0;entryDy=0;rounded=0;" parent="1" source="Zk3EBVXWUtb9SHXZOmo2-27" target="Zk3EBVXWUtb9SHXZOmo2-10" edge="1">
                    <mxGeometry relative="1" as="geometry"/>
                </mxCell>
                <mxCell id="Zk3EBVXWUtb9SHXZOmo2-27" value="&lt;font&gt;Proxy/firewall&lt;/font&gt;" style="image;aspect=fixed;perimeter=ellipsePerimeter;html=1;align=center;shadow=0;dashed=0;fontColor=default;labelBackgroundColor=none;fontSize=12;spacingTop=3;image=img/lib/ibm/vpc/Instance.svg;" parent="1" vertex="1">
                    <mxGeometry x="-302" y="271" width="45" height="45" as="geometry"/>
                </mxCell>
                <mxCell id="Xi0OJc3CzYUvT2jzZGl6-93" style="edgeStyle=orthogonalEdgeStyle;rounded=0;orthogonalLoop=1;jettySize=auto;html=1;exitX=0.5;exitY=0;exitDx=0;exitDy=0;entryX=0.5;entryY=1;entryDx=0;entryDy=0;" parent="1" source="34" target="Zk3EBVXWUtb9SHXZOmo2-27" edge="1">
                    <mxGeometry relative="1" as="geometry"/>
                </mxCell>
                <mxCell id="Xi0OJc3CzYUvT2jzZGl6-122" value="Outgoing Connections" style="edgeLabel;html=1;align=center;verticalAlign=middle;resizable=0;points=[];" parent="Xi0OJc3CzYUvT2jzZGl6-93" vertex="1" connectable="0">
                    <mxGeometry x="-0.314" y="1" relative="1" as="geometry">
                        <mxPoint as="offset"/>
                    </mxGeometry>
                </mxCell>
                <mxCell id="34" value="RustDesk&#10;Virtual Desktop" style="shape=image;verticalLabelPosition=bottom;labelBackgroundColor=default;verticalAlign=top;aspect=fixed;imageAspect=0;image=https://upload.wikimedia.org/wikipedia/commons/thumb/9/96/Rustdesk.svg/1200px-Rustdesk.svg.png;" parent="1" vertex="1">
                    <mxGeometry x="-303.75" y="438" width="48.5" height="48.5" as="geometry"/>
                </mxCell>
                <mxCell id="Xi0OJc3CzYUvT2jzZGl6-90" style="rounded=0;orthogonalLoop=1;jettySize=auto;html=1;exitX=0.5;exitY=0;exitDx=0;exitDy=0;endArrow=none;endFill=0;" parent="1" source="35" edge="1">
                    <mxGeometry relative="1" as="geometry">
                        <mxPoint x="-365" y="412" as="targetPoint"/>
                        <Array as="points">
                            <mxPoint x="-450" y="412"/>
                        </Array>
                    </mxGeometry>
                </mxCell>
                <mxCell id="35" value="User's Virtual &#10;Desktop" style="shape=image;verticalLabelPosition=bottom;labelBackgroundColor=default;verticalAlign=top;aspect=fixed;imageAspect=0;image=https://upload.wikimedia.org/wikipedia/commons/thumb/9/96/Rustdesk.svg/1200px-Rustdesk.svg.png;" parent="1" vertex="1">
                    <mxGeometry x="-474" y="438" width="48.5" height="48.5" as="geometry"/>
                </mxCell>
                <mxCell id="Xi0OJc3CzYUvT2jzZGl6-88" style="rounded=0;orthogonalLoop=1;jettySize=auto;html=1;exitX=0.5;exitY=0;exitDx=0;exitDy=0;endArrow=none;endFill=0;" parent="1" source="36" edge="1">
                    <mxGeometry relative="1" as="geometry">
                        <mxPoint x="-280" y="411" as="targetPoint"/>
                        <Array as="points">
                            <mxPoint x="-188" y="411"/>
                        </Array>
                    </mxGeometry>
                </mxCell>
                <mxCell id="36" value="RustDesk&#10;Virtual Desktop" style="shape=image;verticalLabelPosition=bottom;labelBackgroundColor=default;verticalAlign=top;aspect=fixed;imageAspect=0;image=https://upload.wikimedia.org/wikipedia/commons/thumb/9/96/Rustdesk.svg/1200px-Rustdesk.svg.png;" parent="1" vertex="1">
                    <mxGeometry x="-212" y="438.75" width="48.5" height="48.5" as="geometry"/>
                </mxCell>
                <mxCell id="Xi0OJc3CzYUvT2jzZGl6-89" style="rounded=0;orthogonalLoop=1;jettySize=auto;html=1;exitX=0.5;exitY=0;exitDx=0;exitDy=0;endArrow=none;endFill=0;" parent="1" source="48" edge="1">
                    <mxGeometry relative="1" as="geometry">
                        <mxPoint x="-279" y="411" as="targetPoint"/>
                        <Array as="points">
                            <mxPoint x="-365" y="412"/>
                        </Array>
                    </mxGeometry>
                </mxCell>
                <mxCell id="48" value="RustDesk&#10;Virtual Desktop" style="shape=image;verticalLabelPosition=bottom;labelBackgroundColor=default;verticalAlign=top;aspect=fixed;imageAspect=0;image=https://upload.wikimedia.org/wikipedia/commons/thumb/9/96/Rustdesk.svg/1200px-Rustdesk.svg.png;" parent="1" vertex="1">
                    <mxGeometry x="-389" y="438" width="48.5" height="48.5" as="geometry"/>
                </mxCell>
                <mxCell id="Xi0OJc3CzYUvT2jzZGl6-123" style="rounded=0;orthogonalLoop=1;jettySize=auto;html=1;exitX=0;exitY=0.5;exitDx=0;exitDy=0;entryX=0.344;entryY=0;entryDx=0;entryDy=0;entryPerimeter=0;dashed=1;dashPattern=1 1;" parent="1" source="Zk3EBVXWUtb9SHXZOmo2-55" target="Xi0OJc3CzYUvT2jzZGl6-115" edge="1">
                    <mxGeometry relative="1" as="geometry">
                        <Array as="points">
                            <mxPoint x="-765" y="25"/>
                        </Array>
                    </mxGeometry>
                </mxCell>
                <mxCell id="Xi0OJc3CzYUvT2jzZGl6-124" value="Potentially unencrypted &lt;br&gt;connections by&amp;nbsp;&lt;br&gt;end users" style="edgeLabel;html=1;align=center;verticalAlign=middle;resizable=0;points=[];" parent="Xi0OJc3CzYUvT2jzZGl6-123" vertex="1" connectable="0">
                    <mxGeometry x="0.467" relative="1" as="geometry">
                        <mxPoint x="-7" y="-29" as="offset"/>
                    </mxGeometry>
                </mxCell>
                <mxCell id="Zk3EBVXWUtb9SHXZOmo2-55" value="&lt;font&gt;Floating IP &lt;br&gt;(VPN ingress only)&lt;/font&gt;" style="image;aspect=fixed;perimeter=ellipsePerimeter;html=1;align=center;shadow=0;dashed=0;fontColor=default;labelBackgroundColor=none;fontSize=12;spacingTop=3;image=img/lib/ibm/vpc/InternetServices2.svg;" parent="1" vertex="1">
                    <mxGeometry x="-737.75" y="35" width="25" height="25" as="geometry"/>
                </mxCell>
                <mxCell id="Xi0OJc3CzYUvT2jzZGl6-92" value="RustDesk DMZ&lt;br&gt;Network" style="edgeLabel;html=1;align=center;verticalAlign=middle;resizable=0;points=[];" parent="1" vertex="1" connectable="0">
                    <mxGeometry x="-454.9960743654906" y="252.99798902044603" as="geometry"/>
                </mxCell>
                <mxCell id="Xi0OJc3CzYUvT2jzZGl6-99" value="" style="shape=mxgraph.ibm.box;prType=public;fontStyle=0;verticalAlign=top;align=left;spacingLeft=32;spacingTop=4;fillColor=none;rounded=0;whiteSpace=wrap;html=1;strokeColor=#08A4FF;strokeWidth=3;dashed=0;container=1;spacing=-4;collapsible=0;expand=0;recursiveResize=0;" parent="1" vertex="1">
                    <mxGeometry x="-884" y="294" width="145" height="119" as="geometry"/>
                </mxCell>
                <mxCell id="Xi0OJc3CzYUvT2jzZGl6-125" style="rounded=0;orthogonalLoop=1;jettySize=auto;html=1;exitX=1;exitY=0;exitDx=0;exitDy=0;entryX=0.927;entryY=0;entryDx=0;entryDy=0;entryPerimeter=0;dashed=1;dashPattern=1 1;" parent="1" source="Zk3EBVXWUtb9SHXZOmo2-22" target="Xi0OJc3CzYUvT2jzZGl6-115" edge="1">
                    <mxGeometry relative="1" as="geometry">
                        <Array as="points">
                            <mxPoint x="-106" y="20"/>
                        </Array>
                    </mxGeometry>
                </mxCell>
                <mxCell id="Xi0OJc3CzYUvT2jzZGl6-126" value="Potentially unencrypted&lt;br&gt;connections by end users" style="edgeLabel;html=1;align=center;verticalAlign=middle;resizable=0;points=[];" parent="Xi0OJc3CzYUvT2jzZGl6-125" vertex="1" connectable="0">
                    <mxGeometry x="0.7852" y="2" relative="1" as="geometry">
                        <mxPoint as="offset"/>
                    </mxGeometry>
                </mxCell>
                <mxCell id="Zk3EBVXWUtb9SHXZOmo2-22" value="&lt;font&gt;Floating IP&lt;br&gt;(VPN ingress only)&lt;/font&gt;" style="image;aspect=fixed;perimeter=ellipsePerimeter;html=1;align=center;shadow=0;dashed=0;fontColor=default;labelBackgroundColor=none;fontSize=12;spacingTop=3;image=img/lib/ibm/vpc/InternetServices2.svg;" parent="1" vertex="1">
                    <mxGeometry x="-185" y="35" width="25" height="25" as="geometry"/>
                </mxCell>
                <mxCell id="Xi0OJc3CzYUvT2jzZGl6-109" value="" style="group" parent="1" vertex="1" connectable="0">
                    <mxGeometry x="-1417" y="-202" width="229" height="152" as="geometry"/>
                </mxCell>
                <mxCell id="Xi0OJc3CzYUvT2jzZGl6-104" value="" style="rounded=0;whiteSpace=wrap;html=1;strokeWidth=5;movable=1;resizable=1;rotatable=1;deletable=1;editable=1;locked=0;connectable=1;" parent="Xi0OJc3CzYUvT2jzZGl6-109" vertex="1">
                    <mxGeometry x="18" width="211" height="152" as="geometry"/>
                </mxCell>
                <mxCell id="Xi0OJc3CzYUvT2jzZGl6-105" value="Connection Types" style="text;html=1;strokeColor=none;fillColor=none;align=center;verticalAlign=middle;whiteSpace=wrap;rounded=0;fontSize=18;movable=1;resizable=1;rotatable=1;deletable=1;editable=1;locked=0;connectable=1;" parent="Xi0OJc3CzYUvT2jzZGl6-109" vertex="1">
                    <mxGeometry width="191" height="30" as="geometry"/>
                </mxCell>
                <mxCell id="Xi0OJc3CzYUvT2jzZGl6-106" value="E2E Encrypted" style="endArrow=none;html=1;rounded=0;endFill=0;movable=1;resizable=1;rotatable=1;deletable=1;editable=1;locked=0;connectable=1;" parent="Xi0OJc3CzYUvT2jzZGl6-109" edge="1">
                    <mxGeometry width="50" height="50" relative="1" as="geometry">
                        <mxPoint x="48" y="106" as="sourcePoint"/>
                        <mxPoint x="98" y="56" as="targetPoint"/>
                    </mxGeometry>
                </mxCell>
                <mxCell id="Xi0OJc3CzYUvT2jzZGl6-108" value="Unencrypted" style="endArrow=none;dashed=1;html=1;dashPattern=1 3;strokeWidth=2;rounded=0;movable=1;resizable=1;rotatable=1;deletable=1;editable=1;locked=0;connectable=1;" parent="Xi0OJc3CzYUvT2jzZGl6-109" edge="1">
                    <mxGeometry width="50" height="50" relative="1" as="geometry">
                        <mxPoint x="144" y="109" as="sourcePoint"/>
                        <mxPoint x="194" y="59" as="targetPoint"/>
                    </mxGeometry>
                </mxCell>
                <mxCell id="Zk3EBVXWUtb9SHXZOmo2-101" style="edgeStyle=orthogonalEdgeStyle;rounded=0;orthogonalLoop=1;jettySize=auto;html=1;exitX=0;exitY=0.5;exitDx=0;exitDy=0;entryX=0.5;entryY=0;entryDx=0;entryDy=0;" parent="1" source="Zk3EBVXWUtb9SHXZOmo2-37" target="Zk3EBVXWUtb9SHXZOmo2-55" edge="1">
                    <mxGeometry relative="1" as="geometry"/>
                </mxCell>
                <mxCell id="Xi0OJc3CzYUvT2jzZGl6-116" value="VPN Login" style="edgeLabel;html=1;align=center;verticalAlign=middle;resizable=0;points=[];" parent="Zk3EBVXWUtb9SHXZOmo2-101" vertex="1" connectable="0">
                    <mxGeometry x="-0.342" y="-2" relative="1" as="geometry">
                        <mxPoint x="5" y="2" as="offset"/>
                    </mxGeometry>
                </mxCell>
            </root>
        </mxGraphModel>
    </diagram>
</mxfile>